<svg width="85" height="85" viewBox="0 0 85 85" fill="none" xmlns="http://www.w3.org/2000/svg"><path d="M77.655 18.612a42.631 42.631 0 0 0-9.465-9.976h8.179V3.03H54.886v21.484h5.604V10.277C72.1 16.744 79.396 28.971 79.396 42.5c0 20.344-16.552 36.896-36.896 36.896S5.604 62.844 5.604 42.5 22.156 5.604 42.5 5.604c.913 0 1.843.035 2.766.103L45.68.118A43.266 43.266 0 0 0 42.5 0C31.148 0 20.475 4.42 12.448 12.448 4.42 20.475 0 31.148 0 42.5s4.42 22.025 12.448 30.052C20.475 80.58 31.148 85 42.5 85s22.025-4.42 30.052-12.448C80.58 64.525 85 53.852 85 42.5c0-8.57-2.54-16.83-7.345-23.888z" fill="url(#a)"/><path d="M39.698 39.693l-25.589-.043-.01 5.605 31.203.052V14.104h-5.604v25.59z" fill="url(#b)"/><defs><linearGradient id="a" x1="42.5" x2="42.5" y2="85" gradientUnits="userSpaceOnUse"><stop stop-color="#F00"/><stop offset=".323" stop-color="#BC0000"/><stop offset=".802" stop-color="#610101"/><stop offset="1" stop-color="#620000"/></linearGradient><linearGradient id="b" x1="29.701" y1="14.104" x2="29.701" y2="45.307" gradientUnits="userSpaceOnUse"><stop stop-color="#F00"/><stop offset=".323" stop-color="#BC0000"/><stop offset=".802" stop-color="#610101"/><stop offset="1" stop-color="#620000"/></linearGradient></defs></svg>