<svg width="96" height="83" viewBox="0 0 96 83" fill="none" xmlns="http://www.w3.org/2000/svg"><path d="M64.13 76.27C75.48 68.857 83 56.04 83 41.5 83 18.617 64.383 0 41.5 0S0 18.617 0 41.5 18.617 83 41.5 83h53.838v-6.73H64.129zM41.5 6.73c19.172 0 34.77 15.598 34.77 34.77 0 19.172-15.598 34.77-34.77 34.77-19.172 0-34.77-15.598-34.77-34.77 0-19.172 15.598-34.77 34.77-34.77z" fill="url(#a)"/><path d="M41.5 31.405c5.566 0 10.094-4.528 10.094-10.095 0-5.566-4.528-10.094-10.094-10.094S31.405 15.744 31.405 21.31c0 5.567 4.529 10.095 10.095 10.095zm0-13.46a3.369 3.369 0 0 1 3.365 3.365 3.369 3.369 0 0 1-3.365 3.365 3.369 3.369 0 0 1-3.365-3.365 3.369 3.369 0 0 1 3.365-3.364z" fill="url(#b)"/><path d="M41.5 51.594c-5.566 0-10.095 4.529-10.095 10.095 0 5.566 4.529 10.094 10.095 10.094 5.566 0 10.094-4.528 10.094-10.094S47.066 51.594 41.5 51.594zm0 13.46a3.369 3.369 0 0 1-3.365-3.365 3.369 3.369 0 0 1 3.365-3.365 3.369 3.369 0 0 1 3.365 3.365 3.369 3.369 0 0 1-3.365 3.365z" fill="url(#c)"/><path d="M21.31 51.595c5.567 0 10.095-4.529 10.095-10.095 0-5.566-4.528-10.094-10.095-10.094-5.566 0-10.094 4.528-10.094 10.094s4.528 10.095 10.094 10.095zm0-13.46a3.369 3.369 0 0 1 3.365 3.365 3.369 3.369 0 0 1-3.365 3.365 3.369 3.369 0 0 1-3.364-3.365 3.369 3.369 0 0 1 3.364-3.364z" fill="url(#d)"/><path d="M61.689 51.595c5.566 0 10.094-4.529 10.094-10.095 0-5.566-4.528-10.094-10.094-10.094-5.567 0-10.095 4.528-10.095 10.094s4.528 10.095 10.095 10.095zm0-13.46a3.369 3.369 0 0 1 3.365 3.365 3.369 3.369 0 0 1-3.365 3.365 3.368 3.368 0 0 1-3.365-3.365 3.369 3.369 0 0 1 3.365-3.364z" fill="url(#e)"/><defs><linearGradient id="a" x1="47.669" x2="47.669" y2="83" gradientUnits="userSpaceOnUse"><stop stop-color="#F00"/><stop offset=".323" stop-color="#BC0000"/><stop offset=".802" stop-color="#610101"/><stop offset="1" stop-color="#620000"/></linearGradient><linearGradient id="b" x1="41.5" y1="11.216" x2="41.5" y2="31.405" gradientUnits="userSpaceOnUse"><stop stop-color="#F00"/><stop offset=".323" stop-color="#BC0000"/><stop offset=".802" stop-color="#610101"/><stop offset="1" stop-color="#620000"/></linearGradient><linearGradient id="c" x1="41.5" y1="51.594" x2="41.5" y2="71.783" gradientUnits="userSpaceOnUse"><stop stop-color="#F00"/><stop offset=".323" stop-color="#BC0000"/><stop offset=".802" stop-color="#610101"/><stop offset="1" stop-color="#620000"/></linearGradient><linearGradient id="d" x1="21.31" y1="31.406" x2="21.31" y2="51.595" gradientUnits="userSpaceOnUse"><stop stop-color="#F00"/><stop offset=".323" stop-color="#BC0000"/><stop offset=".802" stop-color="#610101"/><stop offset="1" stop-color="#620000"/></linearGradient><linearGradient id="e" x1="61.689" y1="31.406" x2="61.689" y2="51.595" gradientUnits="userSpaceOnUse"><stop stop-color="#F00"/><stop offset=".323" stop-color="#BC0000"/><stop offset=".802" stop-color="#610101"/><stop offset="1" stop-color="#620000"/></linearGradient></defs></svg>