<svg width="109" height="73" viewBox="0 0 109 73" fill="none" xmlns="http://www.w3.org/2000/svg"><path d="M103.245 52.794a3.78 3.78 0 0 0-1.771-3.214V32.66L109 28.698 54.5 0 0 28.698 24.467 41.58v20.201s10.962 10.874 30.43 10.874c19.465 0 29.632-10.874 29.632-10.874v-20.2l13.447-7.084v15.078a3.791 3.791 0 0 0-1.77 3.214c0 1.235.58 2.273 1.425 2.969l-1.988 11.786h8.165l-1.989-11.786c.846-.688 1.426-1.73 1.426-2.965z" fill="url(#a)"/><defs><linearGradient id="a" x1="54.5" x2="54.5" y2="72.656" gradientUnits="userSpaceOnUse"><stop stop-color="#F00"/><stop offset=".323" stop-color="#BC0000"/><stop offset=".802" stop-color="#610101"/><stop offset="1" stop-color="#620000"/></linearGradient></defs></svg>