<svg width="571" height="571" viewBox="0 0 571 571" fill="none" xmlns="http://www.w3.org/2000/svg"><g opacity=".3" clip-path="url(#a)"><path d="M570.996 551.967H.003V571h570.993v-19.033z" fill="url(#b)"/><path d="M550.964 81.402L512.898 5.27c-2.347-4.704-8.061-6.614-12.764-4.267l-.007.004-76.133 38.066c-4.703 2.35-6.613 8.067-4.263 12.771a9.52 9.52 0 0 0 12.771 4.263l55.139-27.55-15.046 42.958C406.464 259.857 236.13 391.989 37.261 409.219l1.618 19.033C245.24 410.375 421.984 273.245 490.572 77.796l15.36-43.89 27.997 56.004c2.35 4.704 8.068 6.613 12.772 4.264 4.704-2.35 6.612-8.067 4.263-12.772z" fill="url(#c)"/><path d="M114.202 456.801H47.586c-5.255 0-9.516 4.261-9.516 9.517v57.099c0 5.256 4.26 9.517 9.516 9.517h66.616a9.517 9.517 0 0 0 9.517-9.517v-57.099a9.517 9.517 0 0 0-9.517-9.517zm-9.516 57.1H57.103v-38.067h47.583v38.067z" fill="url(#d)"/><path d="M218.884 428.252h-66.615a9.517 9.517 0 0 0-9.517 9.517v85.648a9.517 9.517 0 0 0 9.517 9.517h66.615a9.517 9.517 0 0 0 9.517-9.517v-85.648a9.517 9.517 0 0 0-9.517-9.517zm-9.516 85.649h-47.583v-66.616h47.583v66.616z" fill="url(#e)"/><path d="M323.566 380.669H256.95c-5.255 0-9.516 4.261-9.516 9.516v133.232c0 5.256 4.261 9.517 9.516 9.517h66.616c5.255 0 9.516-4.261 9.516-9.517V390.185c0-5.255-4.261-9.516-9.516-9.516zm-9.517 133.232h-47.582V399.702h47.582v114.199z" fill="url(#f)"/><path d="M428.248 314.053h-66.616c-5.255 0-9.516 4.261-9.516 9.517v199.847c0 5.256 4.261 9.517 9.516 9.517h66.616a9.517 9.517 0 0 0 9.517-9.517V323.57a9.517 9.517 0 0 0-9.517-9.517zm-9.516 199.848h-47.583V333.086h47.583v180.815z" fill="url(#g)"/><path d="M532.93 180.821h-66.616c-5.255 0-9.516 4.261-9.516 9.517v333.079c0 5.256 4.261 9.517 9.516 9.517h66.616a9.517 9.517 0 0 0 9.517-9.517V190.338a9.517 9.517 0 0 0-9.517-9.517zm-9.516 333.08h-47.583V199.854h47.583v314.047z" fill="url(#h)"/></g><defs><linearGradient id="b" x1="285.5" y1="551.967" x2="285.5" y2="571" gradientUnits="userSpaceOnUse"><stop stop-color="#fff"/><stop offset="1" stop-color="#fff" stop-opacity="0"/></linearGradient><linearGradient id="c" x1="294.615" x2="294.615" y2="428.252" gradientUnits="userSpaceOnUse"><stop stop-color="#fff"/><stop offset="1" stop-color="#fff" stop-opacity="0"/></linearGradient><linearGradient id="d" x1="80.894" y1="456.801" x2="80.894" y2="532.934" gradientUnits="userSpaceOnUse"><stop stop-color="#fff"/><stop offset="1" stop-color="#fff" stop-opacity="0"/></linearGradient><linearGradient id="e" x1="185.576" y1="428.252" x2="185.576" y2="532.934" gradientUnits="userSpaceOnUse"><stop stop-color="#fff"/><stop offset="1" stop-color="#fff" stop-opacity="0"/></linearGradient><linearGradient id="f" x1="290.258" y1="380.669" x2="290.258" y2="532.934" gradientUnits="userSpaceOnUse"><stop stop-color="#fff"/><stop offset="1" stop-color="#fff" stop-opacity="0"/></linearGradient><linearGradient id="g" x1="394.94" y1="314.053" x2="394.94" y2="532.934" gradientUnits="userSpaceOnUse"><stop stop-color="#fff"/><stop offset="1" stop-color="#fff" stop-opacity="0"/></linearGradient><linearGradient id="h" x1="499.622" y1="180.821" x2="499.622" y2="532.934" gradientUnits="userSpaceOnUse"><stop stop-color="#fff"/><stop offset="1" stop-color="#fff" stop-opacity="0"/></linearGradient><clipPath id="a"><path fill="#fff" d="M0 0h571v571H0z"/></clipPath></defs></svg>