<svg width="66" height="66" viewBox="0 0 66 66" fill="none" xmlns="http://www.w3.org/2000/svg"><path d="M16.832 64.326a5.746 5.746 0 0 1-5.743-5.735v-45.48a.892.892 0 1 1 1.784 0v45.48a3.96 3.96 0 0 0 7.919 0v-4.254a.892.892 0 0 1 .892-.892H57.02V7.64a3.965 3.965 0 0 0-3.96-3.96H6.668a.892.892 0 0 1 0-1.783H53.06a5.75 5.75 0 0 1 5.744 5.743v46.698a.892.892 0 0 1-.892.892H22.576v3.362a5.746 5.746 0 0 1-5.744 5.735z" fill="url(#a)"/><path d="M57.58 64.327H16.832a.892.892 0 0 1 0-1.783 3.96 3.96 0 0 0 3.96-3.951v-4.255a.892.892 0 0 1 .892-.892h40.736a.892.892 0 0 1 .892.892v4.255a5.74 5.74 0 0 1-5.734 5.734zm-36.587-1.783H57.58a3.955 3.955 0 0 0 3.95-3.951V55.23H22.578v3.363a5.708 5.708 0 0 1-1.584 3.95z" fill="url(#b)"/><path d="M29.45 48.349a.892.892 0 0 1-.791-.477l-1.304-2.484-2.67.853a.892.892 0 0 1-1.093-1.2l3.806-8.913a.892.892 0 0 1 1.64.7l-3.04 7.12 1.526-.487a.892.892 0 0 1 1.063.434l.777 1.482 3.263-7.67a.893.893 0 1 1 1.641.697l-4 9.401a.892.892 0 0 1-.782.543h-.037z" fill="url(#c)"/><path d="M39.503 48.349h-.036a.892.892 0 0 1-.785-.543l-3.988-9.405a.892.892 0 1 1 1.643-.697l3.254 7.67.777-1.48a.892.892 0 0 1 1.062-.434l1.524.487-3.037-7.1a.894.894 0 0 1 .806-1.263.891.891 0 0 1 .833.56l3.802 8.897a.891.891 0 0 1-1.09 1.2l-2.67-.853-1.305 2.484a.892.892 0 0 1-.79.477z" fill="url(#d)"/><path d="M34.48 39.41c-.484 0-.955-.162-1.337-.46l-1.423-1.108a.419.419 0 0 0-.294-.078l-1.784.248a2.169 2.169 0 0 1-2.319-1.338l-.675-1.667a.401.401 0 0 0-.218-.223l-1.667-.675a2.173 2.173 0 0 1-1.337-2.319l.247-1.784a.388.388 0 0 0-.08-.295l-1.107-1.427a2.174 2.174 0 0 1 0-2.675l1.105-1.428a.39.39 0 0 0 .08-.296l-.246-1.784a2.172 2.172 0 0 1 1.337-2.318l1.668-.676a.39.39 0 0 0 .217-.217l.676-1.668a2.171 2.171 0 0 1 2.319-1.338l1.784.248a.392.392 0 0 0 .296-.08l1.422-1.106a2.177 2.177 0 0 1 2.675 0l1.423 1.107a.391.391 0 0 0 .296.08l1.784-.249a2.172 2.172 0 0 1 2.319 1.338l.675 1.668a.396.396 0 0 0 .218.218l1.667.675a2.175 2.175 0 0 1 1.338 2.319l-.248 1.783a.4.4 0 0 0 .08.295l1.105 1.428a2.17 2.17 0 0 1 0 2.675l-1.106 1.423a.401.401 0 0 0-.079.295l.248 1.784a2.175 2.175 0 0 1-1.338 2.319l-1.671.68a.4.4 0 0 0-.219.218l-.674 1.667a2.175 2.175 0 0 1-2.319 1.338l-1.784-.248a.403.403 0 0 0-.296.08l-1.421 1.105c-.381.3-.852.464-1.336.466zm-3.004-3.433c.484 0 .954.161 1.338.457l1.427 1.108a.395.395 0 0 0 .483 0l1.422-1.107a2.19 2.19 0 0 1 1.637-.438l1.784.247a.382.382 0 0 0 .42-.241l.674-1.668a2.187 2.187 0 0 1 1.203-1.202l1.668-.675a.394.394 0 0 0 .241-.419l-.247-1.784a2.187 2.187 0 0 1 .436-1.635l1.108-1.427a.392.392 0 0 0 0-.482l-1.106-1.427a2.186 2.186 0 0 1-.44-1.63l.247-1.784a.393.393 0 0 0-.241-.42l-1.668-.676a2.184 2.184 0 0 1-1.202-1.2l-.676-1.668a.39.39 0 0 0-.419-.242l-1.784.247a2.187 2.187 0 0 1-1.635-.438l-1.427-1.106a.392.392 0 0 0-.484 0l-1.427 1.106a2.204 2.204 0 0 1-1.636.438l-1.783-.248a.395.395 0 0 0-.42.243l-.675 1.668a2.187 2.187 0 0 1-1.201 1.2l-1.668.676a.395.395 0 0 0-.242.419l.247 1.784a2.183 2.183 0 0 1-.44 1.636l-1.096 1.424a.392.392 0 0 0 0 .483L25 28.623a2.186 2.186 0 0 1 .438 1.636l-.248 1.784a.394.394 0 0 0 .242.419l1.668.676a2.19 2.19 0 0 1 1.2 1.2l.677 1.669a.395.395 0 0 0 .418.242l1.784-.247c.098-.015.197-.024.296-.025z" fill="url(#e)"/><path d="M34.48 39.41c-.484 0-.955-.162-1.337-.46l-1.423-1.108a.419.419 0 0 0-.294-.078l-1.784.248a2.169 2.169 0 0 1-2.319-1.338l-.675-1.667a.401.401 0 0 0-.218-.223l-1.667-.675a2.173 2.173 0 0 1-1.337-2.319l.247-1.784a.388.388 0 0 0-.08-.295l-1.107-1.427a2.174 2.174 0 0 1 0-2.675l1.105-1.428a.39.39 0 0 0 .08-.296l-.246-1.784a2.172 2.172 0 0 1 1.337-2.318l1.668-.676a.39.39 0 0 0 .217-.217l.676-1.668a2.171 2.171 0 0 1 2.319-1.338l1.784.248a.392.392 0 0 0 .296-.08l1.422-1.106a2.177 2.177 0 0 1 2.675 0l1.423 1.107a.391.391 0 0 0 .296.08l1.784-.249a2.172 2.172 0 0 1 2.319 1.338l.675 1.668a.396.396 0 0 0 .218.218l1.667.675a2.175 2.175 0 0 1 1.338 2.319l-.248 1.783a.4.4 0 0 0 .08.295l1.105 1.428a2.17 2.17 0 0 1 0 2.675l-1.106 1.423a.401.401 0 0 0-.079.295l.248 1.784a2.175 2.175 0 0 1-1.338 2.319l-1.671.68a.4.4 0 0 0-.219.218l-.674 1.667a2.175 2.175 0 0 1-2.319 1.338l-1.784-.248a.403.403 0 0 0-.296.08l-1.421 1.105c-.381.3-.852.464-1.336.466zm-3.004-3.433c.484 0 .954.161 1.338.457l1.427 1.108a.395.395 0 0 0 .483 0l1.422-1.107a2.19 2.19 0 0 1 1.637-.438l1.784.247a.382.382 0 0 0 .42-.241l.674-1.668a2.187 2.187 0 0 1 1.203-1.202l1.668-.675a.394.394 0 0 0 .241-.419l-.247-1.784a2.187 2.187 0 0 1 .436-1.635l1.108-1.427a.392.392 0 0 0 0-.482l-1.106-1.427a2.186 2.186 0 0 1-.44-1.63l.247-1.784a.393.393 0 0 0-.241-.42l-1.668-.676a2.184 2.184 0 0 1-1.202-1.2l-.676-1.668a.39.39 0 0 0-.419-.242l-1.784.247a2.187 2.187 0 0 1-1.635-.438l-1.427-1.106a.392.392 0 0 0-.484 0l-1.427 1.106a2.204 2.204 0 0 1-1.636.438l-1.783-.248a.395.395 0 0 0-.42.243l-.675 1.668a2.187 2.187 0 0 1-1.201 1.2l-1.668.676a.395.395 0 0 0-.242.419l.247 1.784a2.183 2.183 0 0 1-.44 1.636l-1.096 1.424a.392.392 0 0 0 0 .483L25 28.623a2.186 2.186 0 0 1 .438 1.636l-.248 1.784a.394.394 0 0 0 .242.419l1.668.676a2.19 2.19 0 0 1 1.2 1.2l.677 1.669a.395.395 0 0 0 .418.242l1.784-.247c.098-.015.197-.024.296-.025z" fill="url(#f)"/><path d="M31.316 32.714a.89.89 0 0 1-.878-1.042l.524-3.061-2.224-2.169a.891.891 0 0 1 .495-1.516l3.073-.446 1.375-2.784a.928.928 0 0 1 1.599 0l1.377 2.779 3.072.446a.892.892 0 0 1 .495 1.521l-2.23 2.169.525 3.06a.892.892 0 0 1-1.293.94l-2.75-1.444-2.748 1.445a.892.892 0 0 1-.412.102zm3.164-3.447c.144 0 .286.035.414.103l1.566.823-.3-1.742a.892.892 0 0 1 .257-.79l1.266-1.233-1.749-.254a.892.892 0 0 1-.671-.488L34.48 24.1l-.783 1.586a.892.892 0 0 1-.671.489l-1.75.254 1.266 1.234a.89.89 0 0 1 .256.789l-.297 1.743 1.563-.824a.903.903 0 0 1 .416-.104z" fill="url(#g)"/><path d="M11.995 14.003H2.292a.892.892 0 0 1-.892-.892V7.63a5.744 5.744 0 0 1 11.487 0v5.48a.892.892 0 0 1-.892.892zm-8.811-1.784h7.919V7.63a3.96 3.96 0 0 0-7.92 0v4.589z" fill="url(#h)"/><defs><linearGradient id="a" x1="32.29" y1="1.896" x2="32.29" y2="64.326" gradientUnits="userSpaceOnUse"><stop stop-color="#F00"/><stop offset=".323" stop-color="#BC0000"/><stop offset=".802" stop-color="#610101"/><stop offset="1" stop-color="#620000"/></linearGradient><linearGradient id="b" x1="39.627" y1="53.446" x2="39.627" y2="64.327" gradientUnits="userSpaceOnUse"><stop stop-color="#F00"/><stop offset=".323" stop-color="#BC0000"/><stop offset=".802" stop-color="#610101"/><stop offset="1" stop-color="#620000"/></linearGradient><linearGradient id="c" x1="28.934" y1="35.586" x2="28.934" y2="48.349" gradientUnits="userSpaceOnUse"><stop stop-color="#F00"/><stop offset=".323" stop-color="#BC0000"/><stop offset=".802" stop-color="#610101"/><stop offset="1" stop-color="#620000"/></linearGradient><linearGradient id="d" x1="40.027" y1="35.584" x2="40.027" y2="48.349" gradientUnits="userSpaceOnUse"><stop stop-color="#F00"/><stop offset=".323" stop-color="#BC0000"/><stop offset=".802" stop-color="#610101"/><stop offset="1" stop-color="#620000"/></linearGradient><linearGradient id="e" x1="34.482" y1="14.486" x2="34.482" y2="39.41" gradientUnits="userSpaceOnUse"><stop stop-color="#F00"/><stop offset=".323" stop-color="#BC0000"/><stop offset=".802" stop-color="#610101"/><stop offset="1" stop-color="#620000"/></linearGradient><linearGradient id="f" x1="34.482" y1="14.486" x2="34.482" y2="39.41" gradientUnits="userSpaceOnUse"><stop stop-color="#F00"/><stop offset=".323" stop-color="#BC0000"/><stop offset=".802" stop-color="#610101"/><stop offset="1" stop-color="#620000"/></linearGradient><linearGradient id="g" x1="34.484" y1="21.239" x2="34.484" y2="32.714" gradientUnits="userSpaceOnUse"><stop stop-color="#F00"/><stop offset=".323" stop-color="#BC0000"/><stop offset=".802" stop-color="#610101"/><stop offset="1" stop-color="#620000"/></linearGradient><linearGradient id="h" x1="7.143" y1="1.958" x2="7.143" y2="14.003" gradientUnits="userSpaceOnUse"><stop stop-color="#F00"/><stop offset=".323" stop-color="#BC0000"/><stop offset=".802" stop-color="#610101"/><stop offset="1" stop-color="#620000"/></linearGradient></defs></svg>