<svg width="131" height="131" viewBox="0 0 131 131" fill="none" xmlns="http://www.w3.org/2000/svg"><path d="M89.235 29.008v6.452c0 1.181.706 2.237 1.797 2.689a2.903 2.903 0 0 0 3.172-.631l8.101-8.101h20.454c4.16 0 7.545-3.385 7.545-7.545V7.545c0-4.16-3.385-7.545-7.545-7.545H91.686c-4.16 0-7.545 3.385-7.545 7.545v14.326c0 3.236 2.094 6.103 5.094 7.137zM87.978 7.544a3.713 3.713 0 0 1 3.709-3.709h31.072a3.713 3.713 0 0 1 3.709 3.709v14.326a3.713 3.713 0 0 1-3.709 3.71h-20.908c-.731 0-1.418.284-1.937.8l-6.843 6.844v-5.051a2.74 2.74 0 0 0-2.156-2.674 3.722 3.722 0 0 1-2.937-3.628V7.545z" fill="url(#a)"/><path d="M125.85 112.583h-3.648V52.251c0-3.976-3.235-7.21-7.211-7.21H79.103a1.918 1.918 0 1 0 0 3.835h35.888a3.378 3.378 0 0 1 3.374 3.375v60.332h-6.393V60.702a5.438 5.438 0 0 0-5.432-5.432H67.357a18.562 18.562 0 0 0 1.13-4.634 4.554 4.554 0 0 0 3.567-4.44V29.615a6.918 6.918 0 0 0-6.85-6.91 6.919 6.919 0 0 0-6.906-6.679H41.095c-7.393 0-13.408 6.015-13.408 13.407v16.763a4.554 4.554 0 0 0 3.567 4.44c.179 1.618.567 3.17 1.13 4.634h-7.981a5.438 5.438 0 0 0-5.431 5.432V76.37a15.733 15.733 0 0 0-6.394 4.48v-28.6a3.378 3.378 0 0 1 3.374-3.374h4.783a1.918 1.918 0 1 0 0-3.836h-4.783c-3.976 0-7.21 3.234-7.21 7.21v60.333H5.093A5.1 5.1 0 0 0 0 117.676C0 125.023 5.977 131 13.324 131H117.62c7.346 0 13.323-5.977 13.323-13.324a5.1 5.1 0 0 0-5.093-5.093zm-19.31-53.477c.88 0 1.596.716 1.596 1.596v51.881H91.007v-7.028a1.918 1.918 0 0 0-3.836 0v7.028h-9.21v-6.087a1.918 1.918 0 0 0-3.835 0v6.087H58.523l-4.135-23.32 1.587-2.843c.306.067.617.105.928.105 1.096 0 2.19-.413 3.044-1.234l7.12-6.934a4.171 4.171 0 0 0 1.069-1.746l10.48 3.076c5.037 1.479 8.555 6.178 8.555 11.428v5.473a1.918 1.918 0 1 0 3.836 0v-5.473c0-6.94-4.65-13.153-11.31-15.109L67.037 72.29a4.213 4.213 0 0 0-1.195-.804l-2.62-1.167a5.105 5.105 0 0 0-2.41-.432v-6.132a18.886 18.886 0 0 0 4.531-4.648h41.196zm-70.994 15.86l2.57-1.153c.422-.19.914-.135 1.285.142l7.57 5.656-3.718 3.106a.537.537 0 0 1-.716-.022l-7.104-7.114a.38.38 0 0 1 .113-.614zm21.43-9.074v5.858l-6.933 5.368-7.277-5.437v-5.788a18.63 18.63 0 0 0 14.21 0zm7.306 9.099a.38.38 0 0 1 .11.618l-7.111 6.924a.537.537 0 0 1-.725.022L53.101 79.6l7.26-5.622c.372-.288.87-.348 1.3-.156l2.62 1.168zM48.47 87.007l-1.43-2.456 3.008-2.513 2.693 2.303-1.488 2.666h-2.783zm.505 3.836h1.796l3.855 21.739h-9.504l3.853-21.739zm33.584 25.575a5.377 5.377 0 0 1-5.012 3.455H53.395a5.377 5.377 0 0 1-5.012-3.455H82.56zM31.524 29.433c0-5.277 4.293-9.57 9.57-9.57h17.204a3.077 3.077 0 0 1 3.074 3.073 3.609 3.609 0 0 0 3.604 3.604h.168a3.077 3.077 0 0 1 3.074 3.074v8.983h-1.531a1.557 1.557 0 0 1-1.556-1.555V35.14c0-3.81-3.72-6.498-7.337-5.303a25.412 25.412 0 0 1-15.861-.006c-3.61-1.18-7.322 1.499-7.322 5.308v1.902c0 .858-.698 1.555-1.556 1.555h-1.531v-9.164zm0 16.763v-3.762h1.531a5.398 5.398 0 0 0 5.392-5.392V35.14a1.748 1.748 0 0 1 2.317-1.654 29.273 29.273 0 0 0 18.233-.006 1.748 1.748 0 0 1 2.298 1.66v1.902a5.398 5.398 0 0 0 5.392 5.392h1.531v3.762a.71.71 0 0 1-.71.71 2.79 2.79 0 0 0-2.774 2.613c-.493 7.82-7.021 13.945-14.863 13.945s-14.37-6.125-14.863-13.945a2.788 2.788 0 0 0-2.774-2.613.71.71 0 0 1-.71-.71zm-7.121 12.91h9.995a18.886 18.886 0 0 0 4.531 4.649v6.12a5.103 5.103 0 0 0-2.385.438l-2.57 1.154c-.44.198-.84.47-1.186.802l-9.98 2.93V60.701c0-.88.715-1.596 1.595-1.596zm-11.825 32.01c0-5.25 3.518-9.95 8.556-11.429l.312-.091.021-.007 10.216-2.998a4.219 4.219 0 0 0 1.035 1.7l7.117 7.128a4.366 4.366 0 0 0 3.072 1.264c.295 0 .59-.034.881-.094l1.57 2.695-4.13 23.299H25.615v-6.087a1.918 1.918 0 0 0-3.836 0v6.087h-9.202V91.116zm105.042 36.048H13.324c-5.232 0-9.488-4.256-9.488-9.488 0-.693.564-1.257 1.257-1.257H44.39c.885 4.16 4.586 7.291 9.006 7.291h24.153c4.42 0 8.12-3.131 9.006-7.291h39.296c.693 0 1.257.564 1.257 1.257 0 5.232-4.256 9.488-9.487 9.488z" fill="url(#b)"/><defs><linearGradient id="a" x1="107.223" x2="107.223" y2="38.372" gradientUnits="userSpaceOnUse"><stop stop-color="#F00"/><stop offset=".323" stop-color="#BC0000"/><stop offset=".802" stop-color="#610101"/><stop offset="1" stop-color="#620000"/></linearGradient><linearGradient id="b" x1="65.472" y1="16.026" x2="65.472" y2="131" gradientUnits="userSpaceOnUse"><stop stop-color="#F00"/><stop offset=".323" stop-color="#BC0000"/><stop offset=".802" stop-color="#610101"/><stop offset="1" stop-color="#620000"/></linearGradient></defs></svg>