<svg width="130" height="129" viewBox="0 0 130 129" fill="none" xmlns="http://www.w3.org/2000/svg"><path d="M119.47 67.58a4.367 4.367 0 0 0-4.286-3.543h-4.216l-.31-1.858a4.388 4.388 0 0 0-3.648-3.618c-.415-.065-.834-.109-1.247-.166a13.32 13.32 0 0 0-1.659-9.735 8.935 8.935 0 0 0-6.474-11.952 18.578 18.578 0 0 0-18.15-15.165c-.218 0-.413.028-.62.035a8.882 8.882 0 0 0-13.587-1.69 14.986 14.986 0 0 0-8.152-2.421 15.158 15.158 0 0 0-11.917 5.869 10.875 10.875 0 0 0-13.9 9.772 8.987 8.987 0 0 0-5.503 8.28c.006.626.08 1.25.218 1.862a17.572 17.572 0 0 0-2.094 15.065c-.585.08-1.183.153-1.747.235a4.393 4.393 0 0 0-3.676 3.616l-.31 1.865h-4.227a4.367 4.367 0 0 0-4.284 3.534l-9.56 49.086a6.551 6.551 0 0 0 6.442 7.799h45.531c1.808 2.982 7.301 4.367 12.48 4.367 5.125 0 10.566-1.352 12.426-4.367h45.586a6.55 6.55 0 0 0 6.443-7.797l-9.559-49.072zM32.403 45.34a4.611 4.611 0 0 1 2.358-8.564 4.528 4.528 0 0 1 3.666 1.851 2.183 2.183 0 1 0 3.506-2.602 8.82 8.82 0 0 0-6.192-3.493 6.637 6.637 0 0 1 6.474-5.256c.266.014.532.043.795.088-.176.447-.33.903-.459 1.366a2.183 2.183 0 0 0 4.227 1.092c.248-.96.63-1.88 1.133-2.733a10.781 10.781 0 0 1 9.21-5.256c2.056.01 4.065.616 5.783 1.747-.327.92-.5 1.887-.513 2.862a2.183 2.183 0 1 0 4.367 0 4.593 4.593 0 0 1 9.185 0 2.183 2.183 0 1 0 4.367 0c0-.168-.042-.327-.05-.495a14.172 14.172 0 0 1 12.93 10.93 8.861 8.861 0 0 0-2.826 1.408 2.183 2.183 0 0 0 2.62 3.493 4.602 4.602 0 0 1 6.75 5.954 4.657 4.657 0 0 1-2.067 1.913 2.183 2.183 0 0 0 .93 4.148c.32 0 .637-.07.926-.207a8.969 8.969 0 0 0 1.631-1.02 9.324 9.324 0 0 1-1.847 9.312l-.053.054a9.43 9.43 0 0 1-11.135 2.044 8.668 8.668 0 0 1-1.056-.66 7.436 7.436 0 0 0 .576-7.685 2.184 2.184 0 0 0-3.901 1.965 3.25 3.25 0 0 1-1.053 4.116 3.295 3.295 0 0 1-4.742-1.21 2.184 2.184 0 0 0-3.906 1.954 7.57 7.57 0 0 0 6.803 4.21 7.489 7.489 0 0 0 2.74-.54c.78.683 1.64 1.27 2.56 1.747a13.45 13.45 0 0 0 10.084.933 13.917 13.917 0 0 1-8.991 5.513 2.183 2.183 0 0 0 .69 4.312c1.33-.23 2.629-.61 3.873-1.131a19.522 19.522 0 0 1 1.629 3.748c.075.228.113.466.114.706-.001.943-.565 1.796-1.433 2.166a2.472 2.472 0 0 1-2.818-.758 13.936 13.936 0 0 0-6.391-4.247c-4.718-1.58-6.54-2.993-7.312-4.53a20.961 20.961 0 0 0 3.347-.699 2.184 2.184 0 0 0-1.284-4.174c-1.225.376-2.49.608-3.768.692a16.206 16.206 0 0 1-7.236-1.092 2.183 2.183 0 0 0-2.447.61 9.349 9.349 0 0 1-15.078-10.933 2.19 2.19 0 1 0-3.758-2.25c-.52.886-.94 1.829-1.249 2.81a3.275 3.275 0 0 1-3.102-3.219v-.055a2.159 2.159 0 0 0-2.184-2.154 2.205 2.205 0 0 0-2.183 2.209 7.598 7.598 0 0 0 6.78 7.535c.007.732.073 1.462.198 2.183a13.342 13.342 0 0 1-15.096-18.272 8.796 8.796 0 0 0 1.625 1.294 2.183 2.183 0 0 0 2.253-3.74v.01zm-9.607 17.538c1.007-.149 2.046-.28 3.079-.415a17.628 17.628 0 0 0 19.148 7.768 13.676 13.676 0 0 0 21.422 3.631c1.484.443 3.012.72 4.557.826 1.055 4 4.103 6.423 10.506 8.569a9.676 9.676 0 0 1 4.446 2.928 6.954 6.954 0 0 0 5.275 2.478c.89 0 1.772-.18 2.591-.528a6.722 6.722 0 0 0 4.08-6.181c.003-.702-.11-1.4-.331-2.066a23.863 23.863 0 0 0-1.93-4.443 18.405 18.405 0 0 0 7.255-11.096c.465-.552.886-1.14 1.258-1.76.731.095 1.463.178 2.198.3l7.882 47.409a74.94 74.94 0 0 0-47.474 0V82.967a2.183 2.183 0 1 0-4.367 0v27.339a74.96 74.96 0 0 0-47.474-.017l7.88-47.411zM4.862 119.28a2.165 2.165 0 0 1-.458-1.79l9.56-49.086h3.494l-6.851 41.175a4.381 4.381 0 0 0 5.635 4.878 73.037 73.037 0 0 1 36.062-2.288l-.65 7.914H6.563a2.197 2.197 0 0 1-1.702-.803zm59.712 5.17c-5.26 0-8.277-1.555-8.72-2.247l.751-9.06c2.401.597 4.75 1.385 7.026 2.355.294.142.617.217.943.219.328-.001.651-.075.946-.219a46.48 46.48 0 0 1 7.024-2.371l.75 9.074c-.443.694-3.46 2.249-8.72 2.249zm59.712-5.17a2.196 2.196 0 0 1-1.7.803H77.502l-.655-7.93a73.076 73.076 0 0 1 36.077 2.308 4.38 4.38 0 0 0 5.616-4.888l-6.845-41.167h3.493l9.563 49.081a2.162 2.162 0 0 1-.465 1.793z" fill="url(#a)"/><path d="M57.339 49.529a2.183 2.183 0 0 0-.155 3.083 13.166 13.166 0 0 0 6.997 4.035 6.504 6.504 0 0 1-5.314 2.74 2.183 2.183 0 0 0 0 4.366 10.827 10.827 0 0 0 10.172-7.002 13.177 13.177 0 0 0 10.78-10.48 2.183 2.183 0 1 0-4.289-.82 8.703 8.703 0 0 1-3.615 5.543 8.912 8.912 0 0 1-11.494-1.31 2.183 2.183 0 0 0-3.082-.155z" fill="url(#b)"/><path d="M49.728 47.16a2.183 2.183 0 0 0 2.183-2.183 5.676 5.676 0 0 1 5.677-5.677 2.183 2.183 0 0 0 0-4.367c-5.544.006-10.037 4.5-10.043 10.044a2.183 2.183 0 0 0 2.183 2.183z" fill="url(#c)"/><path d="M66.758 4.367V2.183a2.183 2.183 0 0 0-4.367 0v2.184a2.183 2.183 0 1 0 4.367 0z" fill="url(#d)"/><path d="M100.403 15.668l-2.184 2.183a2.184 2.184 0 1 0 3.088 3.087l2.183-2.183a2.184 2.184 0 1 0-3.087-3.087z" fill="url(#e)"/><path d="M29.386 21.578a2.183 2.183 0 0 0 1.543-3.727l-2.183-2.183a2.183 2.183 0 1 0-3.087 3.087l2.183 2.183c.41.41.965.64 1.544.64z" fill="url(#f)"/><path d="M46.193 12.39a2.183 2.183 0 0 0 2.017-3.02L45.703 3.32a2.183 2.183 0 1 0-4.033 1.672l2.507 6.052a2.183 2.183 0 0 0 2.017 1.348z" fill="url(#g)"/><path d="M86.299 2.137a2.183 2.183 0 0 0-2.852 1.182L80.94 9.37a2.183 2.183 0 1 0 4.034 1.675l2.507-6.053a2.184 2.184 0 0 0-1.181-2.856z" fill="url(#h)"/><path d="M108.951 38.387c.287 0 .571-.057.836-.168l6.05-2.506a2.182 2.182 0 0 0-1.67-4.035l-6.053 2.506a2.183 2.183 0 0 0 .837 4.203z" fill="url(#i)"/><path d="M19.362 38.22a2.184 2.184 0 1 0 1.673-4.035l-6.053-2.507a2.183 2.183 0 1 0-1.67 4.035l6.05 2.506z" fill="url(#j)"/><defs><linearGradient id="a" x1="64.574" y1="17.467" x2="64.574" y2="128.817" gradientUnits="userSpaceOnUse"><stop stop-color="#F00"/><stop offset=".323" stop-color="#BC0000"/><stop offset=".802" stop-color="#610101"/><stop offset="1" stop-color="#620000"/></linearGradient><linearGradient id="b" x1="68.243" y1="43.639" x2="68.243" y2="63.754" gradientUnits="userSpaceOnUse"><stop stop-color="#F00"/><stop offset=".323" stop-color="#BC0000"/><stop offset=".802" stop-color="#610101"/><stop offset="1" stop-color="#620000"/></linearGradient><linearGradient id="c" x1="53.658" y1="34.933" x2="53.658" y2="47.16" gradientUnits="userSpaceOnUse"><stop stop-color="#F00"/><stop offset=".323" stop-color="#BC0000"/><stop offset=".802" stop-color="#610101"/><stop offset="1" stop-color="#620000"/></linearGradient><linearGradient id="d" x1="64.574" x2="64.574" y2="6.55" gradientUnits="userSpaceOnUse"><stop stop-color="#F00"/><stop offset=".323" stop-color="#BC0000"/><stop offset=".802" stop-color="#610101"/><stop offset="1" stop-color="#620000"/></linearGradient><linearGradient id="e" x1="100.855" y1="15.001" x2="100.855" y2="21.605" gradientUnits="userSpaceOnUse"><stop stop-color="#F00"/><stop offset=".323" stop-color="#BC0000"/><stop offset=".802" stop-color="#610101"/><stop offset="1" stop-color="#620000"/></linearGradient><linearGradient id="f" x1="28.28" y1="15.001" x2="28.28" y2="21.578" gradientUnits="userSpaceOnUse"><stop stop-color="#F00"/><stop offset=".323" stop-color="#BC0000"/><stop offset=".802" stop-color="#610101"/><stop offset="1" stop-color="#620000"/></linearGradient><linearGradient id="g" x1="44.931" y1="1.928" x2="44.931" y2="12.39" gradientUnits="userSpaceOnUse"><stop stop-color="#F00"/><stop offset=".323" stop-color="#BC0000"/><stop offset=".802" stop-color="#610101"/><stop offset="1" stop-color="#620000"/></linearGradient><linearGradient id="h" x1="84.209" y1="1.971" x2="84.209" y2="12.393" gradientUnits="userSpaceOnUse"><stop stop-color="#F00"/><stop offset=".323" stop-color="#BC0000"/><stop offset=".802" stop-color="#610101"/><stop offset="1" stop-color="#620000"/></linearGradient><linearGradient id="i" x1="111.973" y1="31.512" x2="111.973" y2="38.387" gradientUnits="userSpaceOnUse"><stop stop-color="#F00"/><stop offset=".323" stop-color="#BC0000"/><stop offset=".802" stop-color="#610101"/><stop offset="1" stop-color="#620000"/></linearGradient><linearGradient id="j" x1="17.173" y1="31.512" x2="17.173" y2="38.386" gradientUnits="userSpaceOnUse"><stop stop-color="#F00"/><stop offset=".323" stop-color="#BC0000"/><stop offset=".802" stop-color="#610101"/><stop offset="1" stop-color="#620000"/></linearGradient></defs></svg>