<svg width="117" height="123" viewBox="0 0 117 123" fill="none" xmlns="http://www.w3.org/2000/svg"><path d="M20.463 120.771c0 1.13.916 2.047 2.047 2.047h51.172a2.047 2.047 0 0 0 2.047-2.047v-8.188h24.562a2.046 2.046 0 0 0 2.047-2.047V85.974h12.281a2.046 2.046 0 0 0 2.001-2.476l-6.094-28.446a55.354 55.354 0 0 0-18.42-40.973C80.238 3.456 64.905-1.416 48.942.357 23.308 3.204 2.84 23.914.278 49.6c-1.337 13.395 2.175 26.755 9.893 37.617 6.734 9.477 10.292 21.08 10.292 33.554zM4.353 50.007C6.724 26.23 25.665 7.06 49.392 4.425c14.802-1.637 28.994 2.87 39.982 12.705a51.252 51.252 0 0 1 17.057 38.14c0 .145.016.289.046.43l5.609 26.18h-11.796a2.046 2.046 0 0 0-2.047 2.047v24.563h-32.75v4.093h6.141v6.141H24.527c-.372-12.552-4.162-24.227-11.018-33.877-7.144-10.056-10.396-22.43-9.157-34.84z" fill="url(#a)"/><path d="M67.188 58.8l-1.522-3.635c.328-.674.618-1.374.866-2.096l3.652-1.498a2.05 2.05 0 0 0 1.253-1.636c.136-1.068.198-1.973.198-2.852 0-.878-.062-1.784-.198-2.851a2.05 2.05 0 0 0-1.253-1.636l-3.652-1.498a18.736 18.736 0 0 0-.864-2.096l1.52-3.635c.283-.68.18-1.46-.272-2.043a22.598 22.598 0 0 0-4.036-4.038 2.046 2.046 0 0 0-2.043-.27l-3.636 1.52a18.716 18.716 0 0 0-2.095-.864l-1.499-3.652a2.045 2.045 0 0 0-1.635-1.255c-2.135-.27-3.57-.27-5.705 0a2.045 2.045 0 0 0-1.635 1.255l-1.5 3.652c-.719.247-1.418.535-2.094.863l-3.636-1.52a2.045 2.045 0 0 0-2.043.271 22.685 22.685 0 0 0-4.036 4.036 2.049 2.049 0 0 0-.272 2.044L32.573 39a18.685 18.685 0 0 0-.866 2.096l-3.652 1.499a2.05 2.05 0 0 0-1.253 1.636 22.177 22.177 0 0 0-.198 2.851c0 .879.062 1.784.198 2.852a2.05 2.05 0 0 0 1.253 1.636l3.652 1.498c.248.72.536 1.421.864 2.096L31.05 58.8c-.283.68-.18 1.46.272 2.043a22.592 22.592 0 0 0 4.036 4.037 2.05 2.05 0 0 0 2.043.271l3.636-1.52c.676.328 1.375.617 2.095.864l1.499 3.652c.28.682.904 1.161 1.635 1.254 1.067.135 1.973.198 2.852.198.88 0 1.785-.063 2.853-.198a2.045 2.045 0 0 0 1.635-1.254l1.5-3.652a18.41 18.41 0 0 0 2.094-.864l3.636 1.52c.676.282 1.46.182 2.043-.27a22.598 22.598 0 0 0 4.036-4.038 2.047 2.047 0 0 0 .272-2.043zm-3.1-9.154a2.043 2.043 0 0 0-1.192 1.336 14.3 14.3 0 0 1-1.273 3.084 2.054 2.054 0 0 0-.104 1.792l1.415 3.382a18.655 18.655 0 0 1-1.657 1.658l-3.382-1.415a2.049 2.049 0 0 0-1.791.104c-.952.534-1.99.962-3.085 1.273a2.04 2.04 0 0 0-1.335 1.192l-1.4 3.408c-.819.06-1.51.06-2.33 0l-1.399-3.408a2.04 2.04 0 0 0-1.335-1.192 14.395 14.395 0 0 1-3.087-1.274 2.055 2.055 0 0 0-1.789-.103l-3.382 1.415a18.79 18.79 0 0 1-1.657-1.658l1.413-3.382c.242-.58.204-1.24-.102-1.789a14.223 14.223 0 0 1-1.273-3.087 2.043 2.043 0 0 0-1.191-1.336l-3.408-1.398a14.802 14.802 0 0 1 0-2.33l3.408-1.397a2.043 2.043 0 0 0 1.191-1.337 14.3 14.3 0 0 1 1.273-3.084c.308-.55.346-1.21.104-1.792l-1.415-3.382a18.792 18.792 0 0 1 1.657-1.657l3.382 1.414a2.055 2.055 0 0 0 1.79-.103 14.4 14.4 0 0 1 3.086-1.273 2.04 2.04 0 0 0 1.335-1.193l1.4-3.408c.819-.06 1.51-.06 2.33 0l1.399 3.409a2.04 2.04 0 0 0 1.335 1.192 14.4 14.4 0 0 1 3.087 1.273 2.054 2.054 0 0 0 1.789.103l3.382-1.414c.585.517 1.14 1.071 1.657 1.658l-1.413 3.381c-.242.58-.204 1.24.102 1.79.535.954.963 1.992 1.273 3.086.17.605.61 1.098 1.191 1.337l3.408 1.398a14.803 14.803 0 0 1 0 2.329l-3.408 1.398z" fill="url(#b)"/><path d="M49.12 36.849c-5.643 0-10.235 4.591-10.235 10.234s4.592 10.235 10.235 10.235c5.642 0 10.234-4.592 10.234-10.235S54.762 36.85 49.12 36.85zm0 16.375a6.147 6.147 0 0 1-6.141-6.14 6.147 6.147 0 0 1 6.14-6.141 6.147 6.147 0 0 1 6.141 6.14 6.147 6.147 0 0 1-6.14 6.14z" fill="url(#c)"/><path d="M66.106 70.167l2.43 3.294a32.916 32.916 0 0 0 6.26-6.044l-3.207-2.544a28.87 28.87 0 0 1-5.483 5.294z" fill="url(#d)"/><path d="M19.953 61.99l3.643-1.867a28.596 28.596 0 0 1-2.103-5.397 28.704 28.704 0 0 1-1.03-7.643c0-15.801 12.855-28.656 28.657-28.656h15.527L62 21.074l2.895 2.894 6.14-6.14c.8-.8.8-2.095 0-2.895l-6.14-6.14L62 11.686l2.647 2.646H49.119c-18.058 0-32.75 14.692-32.75 32.75 0 2.965.396 5.903 1.178 8.733a32.64 32.64 0 0 0 2.406 6.174z" fill="url(#e)"/><path d="M80.692 55.815l-3.946-1.089a28.483 28.483 0 0 1-2.99 7.003l3.514 2.097a32.502 32.502 0 0 0 3.422-8.01z" fill="url(#f)"/><path d="M25.558 63.397l-3.366 2.333a32.905 32.905 0 0 0 5.863 6.432l2.635-3.134a28.685 28.685 0 0 1-5.132-5.63z" fill="url(#g)"/><path d="M55.784 74.96l.947 3.983a32.524 32.524 0 0 0 8.128-3.133l-1.971-3.589a28.454 28.454 0 0 1-7.104 2.74z" fill="url(#h)"/><path d="M31.575 74.741a32.604 32.604 0 0 0 7.908 3.651l1.203-3.914a28.436 28.436 0 0 1-6.912-3.191l-2.199 3.454z" fill="url(#i)"/><path d="M52.431 79.668l-.411-4.073c-.952.096-1.917.145-2.875.145-1.589.075-3.186-.13-4.741-.386l-.668 4.037c1.777.294 3.674.418 5.411.442 1.092 0 2.195-.056 3.285-.165z" fill="url(#j)"/><path d="M40.932 108.49h4.094v4.093h-4.094v-4.093z" fill="url(#k)"/><path d="M49.12 108.49h4.093v4.093H49.12v-4.093z" fill="url(#l)"/><path d="M57.307 108.49h4.094v4.093h-4.094v-4.093z" fill="url(#m)"/><defs><linearGradient id="a" x1="58.333" x2="58.333" y2="122.818" gradientUnits="userSpaceOnUse"><stop stop-color="#F00"/><stop offset=".323" stop-color="#BC0000"/><stop offset=".802" stop-color="#610101"/><stop offset="1" stop-color="#620000"/></linearGradient><linearGradient id="b" x1="49.12" y1="24.563" x2="49.12" y2="69.599" gradientUnits="userSpaceOnUse"><stop stop-color="#F00"/><stop offset=".323" stop-color="#BC0000"/><stop offset=".802" stop-color="#610101"/><stop offset="1" stop-color="#620000"/></linearGradient><linearGradient id="c" x1="49.12" y1="36.849" x2="49.12" y2="57.318" gradientUnits="userSpaceOnUse"><stop stop-color="#F00"/><stop offset=".323" stop-color="#BC0000"/><stop offset=".802" stop-color="#610101"/><stop offset="1" stop-color="#620000"/></linearGradient><linearGradient id="d" x1="70.451" y1="64.873" x2="70.451" y2="73.461" gradientUnits="userSpaceOnUse"><stop stop-color="#F00"/><stop offset=".323" stop-color="#BC0000"/><stop offset=".802" stop-color="#610101"/><stop offset="1" stop-color="#620000"/></linearGradient><linearGradient id="e" x1="44.002" y1="8.792" x2="44.002" y2="61.99" gradientUnits="userSpaceOnUse"><stop stop-color="#F00"/><stop offset=".323" stop-color="#BC0000"/><stop offset=".802" stop-color="#610101"/><stop offset="1" stop-color="#620000"/></linearGradient><linearGradient id="f" x1="77.224" y1="54.726" x2="77.224" y2="63.826" gradientUnits="userSpaceOnUse"><stop stop-color="#F00"/><stop offset=".323" stop-color="#BC0000"/><stop offset=".802" stop-color="#610101"/><stop offset="1" stop-color="#620000"/></linearGradient><linearGradient id="g" x1="26.441" y1="63.397" x2="26.441" y2="72.162" gradientUnits="userSpaceOnUse"><stop stop-color="#F00"/><stop offset=".323" stop-color="#BC0000"/><stop offset=".802" stop-color="#610101"/><stop offset="1" stop-color="#620000"/></linearGradient><linearGradient id="h" x1="60.321" y1="72.221" x2="60.321" y2="78.943" gradientUnits="userSpaceOnUse"><stop stop-color="#F00"/><stop offset=".323" stop-color="#BC0000"/><stop offset=".802" stop-color="#610101"/><stop offset="1" stop-color="#620000"/></linearGradient><linearGradient id="i" x1="36.131" y1="71.287" x2="36.131" y2="78.392" gradientUnits="userSpaceOnUse"><stop stop-color="#F00"/><stop offset=".323" stop-color="#BC0000"/><stop offset=".802" stop-color="#610101"/><stop offset="1" stop-color="#620000"/></linearGradient><linearGradient id="j" x1="48.084" y1="75.354" x2="48.084" y2="79.833" gradientUnits="userSpaceOnUse"><stop stop-color="#F00"/><stop offset=".323" stop-color="#BC0000"/><stop offset=".802" stop-color="#610101"/><stop offset="1" stop-color="#620000"/></linearGradient><linearGradient id="k" x1="42.979" y1="108.49" x2="42.979" y2="112.583" gradientUnits="userSpaceOnUse"><stop stop-color="#F00"/><stop offset=".323" stop-color="#BC0000"/><stop offset=".802" stop-color="#610101"/><stop offset="1" stop-color="#620000"/></linearGradient><linearGradient id="l" x1="51.166" y1="108.49" x2="51.166" y2="112.583" gradientUnits="userSpaceOnUse"><stop stop-color="#F00"/><stop offset=".323" stop-color="#BC0000"/><stop offset=".802" stop-color="#610101"/><stop offset="1" stop-color="#620000"/></linearGradient><linearGradient id="m" x1="59.354" y1="108.49" x2="59.354" y2="112.583" gradientUnits="userSpaceOnUse"><stop stop-color="#F00"/><stop offset=".323" stop-color="#BC0000"/><stop offset=".802" stop-color="#610101"/><stop offset="1" stop-color="#620000"/></linearGradient></defs></svg>