<svg width="127" height="127" viewBox="0 0 127 127" fill="none" xmlns="http://www.w3.org/2000/svg"><path d="M124.859 61.407h-17.574l19.022-19.022c.8-.8.8-2.094 0-2.894L87.416.6c-.8-.801-2.094-.801-2.894 0L23.715 61.406H2.047A2.046 2.046 0 0 0 0 63.454v53.218c0 1.13.915 2.047 2.047 2.047h29.856l7.587 7.588a2.042 2.042 0 0 0 2.895 0l7.59-7.588h74.884a2.046 2.046 0 0 0 2.047-2.047V63.454c0-1.13-.915-2.047-2.047-2.047zM85.969 4.942l35.996 35.996-20.469 20.469H85.869a22.337 22.337 0 0 0-6.495-13.874c-8.777-8.777-23.062-8.779-31.843 0a22.358 22.358 0 0 0-6.495 13.874H29.502L85.969 4.942zM53.683 61.407c-.278-1.33.095-2.753 1.085-3.742l3.744 3.742h-4.829zm22.082 0a7.995 7.995 0 0 0-.733-.848c-3.195-3.19-8.386-3.193-11.579 0l-5.79-5.788c1.547-1.546 4.24-1.546 5.788 0l2.894-2.895a8.138 8.138 0 0 0-5.788-2.396 8.135 8.135 0 0 0-5.789 2.397l-.002.002-1.447-1.448-2.894 2.895 1.447 1.447a8.123 8.123 0 0 0-2.34 6.638H45.15a18.289 18.289 0 0 1 5.273-10.98c7.184-7.182 18.87-7.18 26.054 0a18.278 18.278 0 0 1 5.273 10.98h-5.985v-.004zm-34.828 60.559l-3.246-3.247h6.493l-3.246 3.247zm81.875-7.34H4.094V65.5h118.718v49.126z" fill="url(#a)"/><path d="M57.313 96.204h-4.094c0 4.515 3.672 8.187 8.187 8.187v2.047H65.5v-2.047c4.515 0 8.188-3.672 8.188-8.187 0-4.516-3.673-8.188-8.188-8.188V79.83a4.098 4.098 0 0 1 4.094 4.093h4.094c0-4.515-3.673-8.187-8.188-8.187v-2.047h-4.094v2.047c-4.515 0-8.187 3.672-8.187 8.187 0 4.516 3.672 8.188 8.187 8.188v8.187a4.098 4.098 0 0 1-4.093-4.093zm0-12.282a4.098 4.098 0 0 1 4.093-4.093v8.187a4.098 4.098 0 0 1-4.093-4.094zM65.5 92.11a4.098 4.098 0 0 1 4.094 4.094 4.098 4.098 0 0 1-4.094 4.093V92.11z" fill="url(#b)"/><path d="M63.453 112.579c12.414 0 22.516-10.102 22.516-22.516 0-12.414-10.102-22.516-22.516-22.516-12.414 0-22.516 10.102-22.516 22.516 0 12.414 10.102 22.516 22.516 22.516zm0-40.938c10.159 0 18.422 8.265 18.422 18.422s-8.263 18.422-18.422 18.422-18.422-8.265-18.422-18.422 8.264-18.422 18.422-18.422z" fill="url(#c)"/><path d="M118.719 108.485V71.641c0-1.13-.915-2.047-2.047-2.047H92.109v4.094h22.516v32.75H92.109v4.094h24.563a2.046 2.046 0 0 0 2.047-2.047z" fill="url(#d)"/><path d="M10.234 110.532h24.563v-4.094H12.28v-32.75h22.516v-4.094H10.234a2.046 2.046 0 0 0-2.046 2.047v36.844c0 1.13.914 2.047 2.046 2.047z" fill="url(#e)"/><path d="M92.11 98.25h4.093v4.094H92.11v-4.093z" fill="url(#f)"/><path d="M100.297 98.25h4.094v4.094h-4.094v-4.093z" fill="url(#g)"/><path d="M92.11 77.782h4.093v4.094H92.11v-4.094z" fill="url(#h)"/><path d="M100.297 77.782h4.094v4.094h-4.094v-4.094z" fill="url(#i)"/><path d="M86.525 17.223l23.157 23.158-15.92 15.921 2.893 2.894 17.368-17.367c.8-.8.8-2.095 0-2.895l-26.05-26.052c-.768-.768-2.127-.768-2.895 0L67.711 30.249l2.894 2.895 15.92-15.921z" fill="url(#j)"/><path d="M87.96 50.517l2.895-2.895 2.895 2.895-2.895 2.895-2.895-2.895z" fill="url(#k)"/><path d="M93.747 44.727l2.895-2.894 2.895 2.894-2.895 2.895-2.895-2.895z" fill="url(#l)"/><path d="M73.488 36.045l2.895-2.895 2.895 2.895-2.895 2.895-2.895-2.895z" fill="url(#m)"/><path d="M79.276 30.255l2.894-2.894 2.895 2.894-2.895 2.895-2.894-2.895z" fill="url(#n)"/><path d="M22.516 77.782h4.093v4.094h-4.093v-4.094z" fill="url(#o)"/><path d="M30.703 77.782h4.094v4.094h-4.094v-4.094z" fill="url(#p)"/><path d="M22.516 98.25h4.093v4.094h-4.093v-4.093z" fill="url(#q)"/><path d="M30.703 98.25h4.094v4.094h-4.094v-4.093z" fill="url(#r)"/><defs><linearGradient id="a" x1="63.453" x2="63.453" y2="126.907" gradientUnits="userSpaceOnUse"><stop stop-color="#F00"/><stop offset=".323" stop-color="#BC0000"/><stop offset=".802" stop-color="#610101"/><stop offset="1" stop-color="#620000"/></linearGradient><linearGradient id="b" x1="63.453" y1="73.688" x2="63.453" y2="106.438" gradientUnits="userSpaceOnUse"><stop stop-color="#F00"/><stop offset=".323" stop-color="#BC0000"/><stop offset=".802" stop-color="#610101"/><stop offset="1" stop-color="#620000"/></linearGradient><linearGradient id="c" x1="63.453" y1="67.547" x2="63.453" y2="112.579" gradientUnits="userSpaceOnUse"><stop stop-color="#F00"/><stop offset=".323" stop-color="#BC0000"/><stop offset=".802" stop-color="#610101"/><stop offset="1" stop-color="#620000"/></linearGradient><linearGradient id="d" x1="105.414" y1="69.594" x2="105.414" y2="110.532" gradientUnits="userSpaceOnUse"><stop stop-color="#F00"/><stop offset=".323" stop-color="#BC0000"/><stop offset=".802" stop-color="#610101"/><stop offset="1" stop-color="#620000"/></linearGradient><linearGradient id="e" x1="21.492" y1="69.594" x2="21.492" y2="110.532" gradientUnits="userSpaceOnUse"><stop stop-color="#F00"/><stop offset=".323" stop-color="#BC0000"/><stop offset=".802" stop-color="#610101"/><stop offset="1" stop-color="#620000"/></linearGradient><linearGradient id="f" x1="94.156" y1="98.251" x2="94.156" y2="102.344" gradientUnits="userSpaceOnUse"><stop stop-color="#F00"/><stop offset=".323" stop-color="#BC0000"/><stop offset=".802" stop-color="#610101"/><stop offset="1" stop-color="#620000"/></linearGradient><linearGradient id="g" x1="102.344" y1="98.251" x2="102.344" y2="102.344" gradientUnits="userSpaceOnUse"><stop stop-color="#F00"/><stop offset=".323" stop-color="#BC0000"/><stop offset=".802" stop-color="#610101"/><stop offset="1" stop-color="#620000"/></linearGradient><linearGradient id="h" x1="94.156" y1="77.782" x2="94.156" y2="81.876" gradientUnits="userSpaceOnUse"><stop stop-color="#F00"/><stop offset=".323" stop-color="#BC0000"/><stop offset=".802" stop-color="#610101"/><stop offset="1" stop-color="#620000"/></linearGradient><linearGradient id="i" x1="102.344" y1="77.782" x2="102.344" y2="81.876" gradientUnits="userSpaceOnUse"><stop stop-color="#F00"/><stop offset=".323" stop-color="#BC0000"/><stop offset=".802" stop-color="#610101"/><stop offset="1" stop-color="#620000"/></linearGradient><linearGradient id="j" x1="91.167" y1="12.306" x2="91.167" y2="59.196" gradientUnits="userSpaceOnUse"><stop stop-color="#F00"/><stop offset=".323" stop-color="#BC0000"/><stop offset=".802" stop-color="#610101"/><stop offset="1" stop-color="#620000"/></linearGradient><linearGradient id="k" x1="89.408" y1="49.069" x2="92.302" y2="51.964" gradientUnits="userSpaceOnUse"><stop stop-color="#F00"/><stop offset=".323" stop-color="#BC0000"/><stop offset=".802" stop-color="#610101"/><stop offset="1" stop-color="#620000"/></linearGradient><linearGradient id="l" x1="95.195" y1="43.28" x2="98.09" y2="46.175" gradientUnits="userSpaceOnUse"><stop stop-color="#F00"/><stop offset=".323" stop-color="#BC0000"/><stop offset=".802" stop-color="#610101"/><stop offset="1" stop-color="#620000"/></linearGradient><linearGradient id="m" x1="74.936" y1="34.598" x2="77.831" y2="37.492" gradientUnits="userSpaceOnUse"><stop stop-color="#F00"/><stop offset=".323" stop-color="#BC0000"/><stop offset=".802" stop-color="#610101"/><stop offset="1" stop-color="#620000"/></linearGradient><linearGradient id="n" x1="80.723" y1="28.808" x2="83.618" y2="31.703" gradientUnits="userSpaceOnUse"><stop stop-color="#F00"/><stop offset=".323" stop-color="#BC0000"/><stop offset=".802" stop-color="#610101"/><stop offset="1" stop-color="#620000"/></linearGradient><linearGradient id="o" x1="24.563" y1="77.782" x2="24.563" y2="81.876" gradientUnits="userSpaceOnUse"><stop stop-color="#F00"/><stop offset=".323" stop-color="#BC0000"/><stop offset=".802" stop-color="#610101"/><stop offset="1" stop-color="#620000"/></linearGradient><linearGradient id="p" x1="32.75" y1="77.782" x2="32.75" y2="81.876" gradientUnits="userSpaceOnUse"><stop stop-color="#F00"/><stop offset=".323" stop-color="#BC0000"/><stop offset=".802" stop-color="#610101"/><stop offset="1" stop-color="#620000"/></linearGradient><linearGradient id="q" x1="24.563" y1="98.251" x2="24.563" y2="102.344" gradientUnits="userSpaceOnUse"><stop stop-color="#F00"/><stop offset=".323" stop-color="#BC0000"/><stop offset=".802" stop-color="#610101"/><stop offset="1" stop-color="#620000"/></linearGradient><linearGradient id="r" x1="32.75" y1="98.251" x2="32.75" y2="102.344" gradientUnits="userSpaceOnUse"><stop stop-color="#F00"/><stop offset=".323" stop-color="#BC0000"/><stop offset=".802" stop-color="#610101"/><stop offset="1" stop-color="#620000"/></linearGradient></defs></svg>