<svg width="109" height="54" viewBox="0 0 109 54" fill="none" xmlns="http://www.w3.org/2000/svg"><path d="M0 38.439v11.206h1.5v-9.797h4.847v9.797h1.5V38.44H0zM10.731 49.645v-7.428c.003-.496.088-.931.26-1.31a2.07 2.07 0 0 1 .75-.891c.324-.217.715-.326 1.175-.329.37.003.694.067.967.195.274.126.503.299.68.518.181.219.317.467.405.747.09.277.133.57.133.878 0 .419-.093.787-.274 1.107a1.876 1.876 0 0 1-.782.747c-.342.182-.755.272-1.24.275h-1.5v1.409h1.324c.316.002.64-.011.973-.04a4.31 4.31 0 0 0 .975-.214c.319-.112.622-.285.906-.523.285-.237.54-.56.766-.968a3.62 3.62 0 0 0 .316-.857 4.355 4.355 0 0 0-.138-2.345 3.555 3.555 0 0 0-.702-1.206 3.283 3.283 0 0 0-1.167-.825c-.465-.2-1.007-.304-1.626-.306a4.12 4.12 0 0 0-1.507.266c-.452.179-.84.438-1.167.78-.327.341-.58.76-.758 1.256-.175.496-.265 1.062-.268 1.7v7.364h1.499zM17.775 44.042c.003.643.104 1.251.306 1.828.2.576.481 1.104.843 1.585.361.477.784.894 1.27 1.243a5.863 5.863 0 0 0 1.59.816 5.705 5.705 0 0 0 3.596 0 5.848 5.848 0 0 0 1.586-.816c.487-.35.91-.766 1.27-1.243.362-.48.644-1.01.844-1.585a5.555 5.555 0 0 0 .305-1.828 5.571 5.571 0 0 0-.305-1.83 5.727 5.727 0 0 0-.843-1.583 5.917 5.917 0 0 0-1.27-1.243 5.845 5.845 0 0 0-1.587-.817 5.708 5.708 0 0 0-3.596 0 5.86 5.86 0 0 0-1.59.817c-.486.35-.909.765-1.27 1.243a5.725 5.725 0 0 0-.843 1.583 5.569 5.569 0 0 0-.306 1.83zm1.563 0c.003-.593.112-1.15.322-1.673.212-.523.507-.985.89-1.388.383-.4.83-.715 1.345-.944a4.129 4.129 0 0 1 1.685-.35c.609.003 1.172.12 1.685.35.516.23.963.544 1.345.944a4.45 4.45 0 0 1 1.212 3.06 4.45 4.45 0 0 1-.321 1.674 4.395 4.395 0 0 1-.89 1.387c-.383.4-.83.715-1.346.945a4.173 4.173 0 0 1-1.685.35 4.174 4.174 0 0 1-1.685-.35 4.208 4.208 0 0 1-1.345-.945 4.395 4.395 0 0 1-.89-1.387 4.502 4.502 0 0 1-.322-1.673zM36.304 37.494V47.58h-.095c-.615-.003-1.162-.104-1.643-.299a3.496 3.496 0 0 1-1.972-1.972 3.709 3.709 0 0 1-.03-2.66c.152-.414.375-.79.665-1.126a3.397 3.397 0 0 1 1.069-.816c.42-.211.898-.331 1.432-.363v-1.505a5.553 5.553 0 0 0-1.76.357 4.917 4.917 0 0 0-2.386 1.959c-.269.427-.47.875-.609 1.35a5.15 5.15 0 0 0 .05 3.044c.17.51.413.977.726 1.401.314.427.691.793 1.13 1.105.441.312.933.552 1.475.723.545.17 1.13.256 1.757.259h.191v1.392h1.5V40.296h.08c.608.002 1.15.104 1.631.298.478.198.888.465 1.223.806.337.34.593.729.77 1.164.176.437.266.896.266 1.382a3.661 3.661 0 0 1-.911 2.417 3.418 3.418 0 0 1-1.074.817c-.42.205-.896.322-1.428.352v1.505a5.647 5.647 0 0 0 1.779-.358 4.89 4.89 0 0 0 1.392-.814c.4-.339.732-.72 1-1.144a5.231 5.231 0 0 0 .805-2.775 5.24 5.24 0 0 0-.25-1.62 4.854 4.854 0 0 0-1.842-2.505 5.206 5.206 0 0 0-1.485-.723 6.143 6.143 0 0 0-1.797-.26h-.16v-1.344h-1.499zM44.724 38.358v9.622c-.005.32.021.611.074.873.054.261.16.472.32.63.161.157.403.237.722.242.269-.003.494-.07.683-.2.186-.13.348-.31.49-.534.14-.221.276-.474.406-.755l3.27-6.9.095-.208c.04-.088.082-.179.13-.272.048-.093.096-.17.144-.235.05-.064.095-.099.14-.101.054.002.088.021.104.058a.26.26 0 0 1 .027.123c0 .048 0 .088-.003.123v8.741h1.5v-9.621a3.721 3.721 0 0 0-.086-.873 1.215 1.215 0 0 0-.335-.63c-.164-.157-.401-.24-.712-.243-.237 0-.447.054-.63.163a1.694 1.694 0 0 0-.51.491 5.418 5.418 0 0 0-.47.835l-3.27 6.932c-.12.26-.215.46-.293.6-.076.142-.138.214-.185.217-.048-.003-.08-.019-.096-.054a.288.288 0 0 1-.032-.122v-.128l.016-8.773h-1.5zM54.211 39.848h2.775v9.797h1.5v-9.797h2.774v-1.41h-7.049v1.41zM63.09 53.135v-6.708c.003-.539.056-1 .162-1.38.107-.38.253-.695.434-.944.18-.248.383-.443.611-.581.226-.142.46-.238.702-.297.242-.056.478-.082.707-.08.361 0 .699.067 1.015.195.314.131.59.315.832.555.24.24.425.529.56.865.136.336.206.71.208 1.123-.002.51-.117.958-.34 1.345a2.344 2.344 0 0 1-.941.902c-.401.216-.875.328-1.414.33a2.52 2.52 0 0 1-.64-.077 2.483 2.483 0 0 1-.65-.272 3.583 3.583 0 0 1-.672-.515v1.473c.194.165.407.301.644.41.234.11.478.193.733.246.255.054.508.08.76.08a4.176 4.176 0 0 0 2.254-.654c.335-.215.628-.48.883-.795a3.6 3.6 0 0 0 .598-1.083c.143-.408.218-.862.22-1.358a4.396 4.396 0 0 0-.218-1.393 3.997 3.997 0 0 0-.598-1.142 3.963 3.963 0 0 0-2.006-1.393 4.207 4.207 0 0 0-1.244-.186 4.723 4.723 0 0 0-1.09.125c-.372.085-.73.23-1.076.43a3.381 3.381 0 0 0-.933.821c-.277.345-.495.774-.657 1.292-.16.515-.244 1.131-.247 1.846v6.82h1.403zM78.498 44.234a4.292 4.292 0 0 0-.96-1.363 3.861 3.861 0 0 0-1.28-.806 4.11 4.11 0 0 0-1.46-.264 4.035 4.035 0 0 0-1.568.306 3.836 3.836 0 0 0-2.097 2.111 4.136 4.136 0 0 0-.306 1.585c.003.558.096 1.065.28 1.526.183.462.438.867.765 1.217a4.013 4.013 0 0 0 2.926 1.26c.362 0 .715-.04 1.066-.126.348-.083.678-.211.991-.387.152-.083.327-.203.53-.36A3.728 3.728 0 0 0 78.5 47.44c.146-.344.239-.747.284-1.206l-1.42-.176a2.73 2.73 0 0 1-.17.857 2.547 2.547 0 0 1-.403.704 2.187 2.187 0 0 1-.575.504c-.218.125-.449.213-.696.264-.247.051-.497.075-.755.072a2.641 2.641 0 0 1-1.356-.368 2.298 2.298 0 0 1-.581-.525 2.516 2.516 0 0 1-.41-.769 3.052 3.052 0 0 1-.157-.995c0-.382.062-.734.181-1.057.12-.323.287-.603.508-.843a2.36 2.36 0 0 1 .792-.558 2.63 2.63 0 0 1 1.023-.2c.18-.002.372.014.572.05.202.038.4.11.606.217.202.107.401.264.592.47l-3.78 2.113.575 1.12 5.167-2.881zM80.17 49.645h1.404V46.14h3.636v3.506h1.404v-7.684H85.21v2.833h-3.636v-2.833h-1.403v7.684zM89.403 41.96H88v6.788c-.003.08.002.177.016.294.01.117.042.232.093.35.05.114.132.213.247.29.114.078.27.12.473.123a.873.873 0 0 0 .433-.112 1.23 1.23 0 0 0 .327-.285c.099-.12.189-.251.276-.392.086-.142.179-.286.272-.428l2.774-4.114.072-.12c.035-.056.07-.115.11-.176.036-.061.068-.112.09-.152a.063.063 0 0 0 .016-.03c.002-.01.008-.018.016-.018.007 0 .013.002.013.01a.053.053 0 0 1 .002.022v5.636h1.404V42.76a1.455 1.455 0 0 0-.014-.205 1.098 1.098 0 0 0-.09-.323.739.739 0 0 0-.247-.302c-.114-.082-.274-.128-.478-.13a.906.906 0 0 0-.439.111 1.307 1.307 0 0 0-.338.286c-.098.12-.191.251-.279.392a37.6 37.6 0 0 1-.268.427l-2.76 4.163-.068.112c-.037.056-.072.117-.112.181l-.09.155a.063.063 0 0 0-.016.03c-.003.01-.008.018-.016.018s-.013-.003-.013-.01c-.003-.006-.003-.014-.003-.022v-.08-5.603zM96.02 49.645h1.404V46.14h3.636v3.506h1.403v-7.684h-1.403v2.833h-3.636v-2.833H96.02v7.684zM103.85 49.645h1.403v-4.37c-.003-.142 0-.307.005-.491.003-.184.027-.371.069-.555.043-.184.12-.35.229-.491.117-.142.25-.243.393-.304.144-.062.295-.1.452-.112.16-.014.319-.02.479-.017h1.897v-1.344h-1.61c-.245-.003-.484 0-.718.01a4.134 4.134 0 0 0-.688.08c-.224.046-.436.12-.641.227a2.184 2.184 0 0 0-.989 1.075 3.2 3.2 0 0 0-.202.678c-.04.23-.063.451-.071.662-.008.214-.011.408-.008.582v4.37z" fill="#fff"/><path d="M64.277 51.411v.932c0 .077.003.155.01.236.008.08.024.158.05.234a.55.55 0 0 0 .343.343c.04.014.082.024.124.03a.885.885 0 0 0 .126.01c.035 0 .07-.002.104-.004a.592.592 0 0 0 .258-.073.465.465 0 0 0 .164-.16v.2c.001.044.001.09-.002.137a.483.483 0 0 1-.027.138.336.336 0 0 1-.087.13.386.386 0 0 1-.136.082.739.739 0 0 1-.162.039 1.199 1.199 0 0 1-.436-.027 1.443 1.443 0 0 1-.274-.102l-.033.317a2.13 2.13 0 0 0 .41.11c.074.01.15.017.225.017a1.12 1.12 0 0 0 .414-.08.687.687 0 0 0 .311-.252.66.66 0 0 0 .076-.164.941.941 0 0 0 .033-.176c.006-.06.008-.123.008-.187v-1.73h-.32v.874c.001.034 0 .074-.003.118a.722.722 0 0 1-.022.14.494.494 0 0 1-.058.14.416.416 0 0 1-.367.207.542.542 0 0 1-.118-.011.315.315 0 0 1-.106-.044.366.366 0 0 1-.112-.112.468.468 0 0 1-.055-.138.899.899 0 0 1-.017-.15c-.001-.052-.002-.101-.001-.15v-.874h-.32zm3.511 0v.525c0 .05.002.105.01.163a.609.609 0 0 0 .047.17.447.447 0 0 0 .115.154.576.576 0 0 0 .211.111c.088.027.2.042.335.043h.341v.582h.32v-1.748h-.32v.86h-.283c-.09 0-.165-.007-.223-.017a.408.408 0 0 1-.135-.048.19.19 0 0 1-.07-.072.244.244 0 0 1-.025-.088.895.895 0 0 1-.004-.1v-.535h-.319zm5.092.517a.976.976 0 0 0-.218-.31.878.878 0 0 0-.292-.183.935.935 0 0 0-.975.2.882.882 0 0 0-.19.29.938.938 0 0 0-.07.36.94.94 0 0 0 .064.347.87.87 0 0 0 .433.469.933.933 0 0 0 .649.066.87.87 0 0 0 .6-.51.944.944 0 0 0 .064-.274l-.322-.04a.58.58 0 0 1-.13.355.502.502 0 0 1-.29.175.815.815 0 0 1-.172.017.616.616 0 0 1-.308-.084.527.527 0 0 1-.225-.294.694.694 0 0 1-.036-.227.69.69 0 0 1 .04-.24.536.536 0 0 1 .529-.364c.041 0 .085.003.13.011a.487.487 0 0 1 .273.156l-.86.48.13.256 1.176-.656zm2.484-.054a.747.747 0 0 1 .3-.172.564.564 0 0 1 .153-.021c.052 0 .103.005.154.015a.529.529 0 0 1 .412.388.742.742 0 0 1-.007.415.567.567 0 0 1-.24.303.62.62 0 0 1-.326.088.575.575 0 0 1-.21-.04.505.505 0 0 1-.206-.145.585.585 0 0 1-.11-.204 1.074 1.074 0 0 1-.043-.234 2.676 2.676 0 0 1-.007-.23v-.342c0-.152.019-.277.056-.375a.562.562 0 0 1 .149-.23.578.578 0 0 1 .212-.12c.079-.025.16-.04.245-.047.085-.006.168-.008.248-.007h.428v-.306h-.45c-.048 0-.106 0-.171.002-.067.002-.138.01-.214.022a1.141 1.141 0 0 0-.23.063.826.826 0 0 0-.411.341c-.056.088-.1.195-.132.322a1.856 1.856 0 0 0-.05.452v.244c0 .068 0 .14.005.218.004.078.015.158.033.24a.939.939 0 0 0 .091.24.844.844 0 0 0 .774.441c.092 0 .182-.012.27-.035a.858.858 0 0 0 .246-.11.864.864 0 0 0 .204-.193.967.967 0 0 0 .14-.92.895.895 0 0 0-.164-.276.823.823 0 0 0-.453-.266 1.054 1.054 0 0 0-.213-.02.891.891 0 0 0-.33.072.793.793 0 0 0-.153.088v.339zm3.384 1.285h.319v-.797h.827v.797h.32v-1.748h-.32v.645h-.827v-.645h-.32v1.748zm3.804-1.748h-.32v.954c0 .044.002.094.006.149.005.056.014.114.029.175.014.06.037.12.069.178a.597.597 0 0 0 .329.281.67.67 0 0 0 .144.037c.049.008.099.01.15.01a.969.969 0 0 0 .198-.018.637.637 0 0 0 .45-.333.739.739 0 0 0 .091-.344.603.603 0 0 0-.193-.444.67.67 0 0 0-.213-.134.753.753 0 0 0-.268-.048.685.685 0 0 0-.341.095v.334a.34.34 0 0 1 .094-.07.549.549 0 0 1 .229-.053c.076 0 .142.018.198.051.056.034.099.078.13.135.03.056.044.118.045.185a.334.334 0 0 1-.087.225.339.339 0 0 1-.124.081.505.505 0 0 1-.188.033.56.56 0 0 1-.199-.032.313.313 0 0 1-.195-.192.525.525 0 0 1-.028-.122.867.867 0 0 1-.006-.113v-1.02zm1.32 0v1.748h.32v-1.748h-.32zm2.659 0h-.32v1.515l.001.075a.34.34 0 0 0 .019.088c.01.03.029.055.055.075.027.02.064.03.114.031.037 0 .07-.008.099-.025a.28.28 0 0 0 .074-.065.866.866 0 0 0 .063-.09 2.9 2.9 0 0 1 .061-.096l.632-.936a.85.85 0 0 1 .016-.027l.025-.04.02-.035a.014.014 0 0 0 .004-.007c0-.002.002-.004.003-.004.002 0 .003 0 .003.003l.001.004v1.282h.32v-1.515c0-.02 0-.045-.002-.074a.334.334 0 0 0-.018-.09.162.162 0 0 0-.055-.074.19.19 0 0 0-.114-.031.201.201 0 0 0-.1.025.284.284 0 0 0-.075.065.842.842 0 0 0-.064.09 2.56 2.56 0 0 1-.062.097l-.628.946-.016.026-.025.041-.02.035a.016.016 0 0 0-.004.007c0 .002-.002.004-.004.004s-.003 0-.003-.002v-.005-.018V51.41zm.75-.732a.297.297 0 0 1-.18.215.373.373 0 0 1-.276 0 .297.297 0 0 1-.182-.214h-.258c.02.093.056.173.108.24a.513.513 0 0 0 .197.153c.08.036.17.053.272.054a.662.662 0 0 0 .272-.054.513.513 0 0 0 .197-.153.587.587 0 0 0 .108-.24h-.258zm5.648.732v1.042c0 .05 0 .102.005.157.004.054.014.11.03.164a.483.483 0 0 0 .333.338.869.869 0 0 0 .159.034c.06.009.133.013.216.013h.74v.455h.276v-.76h-.994c-.053 0-.098-.003-.136-.006a.564.564 0 0 1-.094-.015.261.261 0 0 1-.067-.027.267.267 0 0 1-.107-.102.338.338 0 0 1-.038-.127 1.2 1.2 0 0 1-.004-.139v-1.027h-.32zm1.454 1.311v-1.31h-.319v1.31h.32zm3.91-.794a.977.977 0 0 0-.218-.31.879.879 0 0 0-.292-.183.934.934 0 0 0-.975.2.88.88 0 0 0-.19.29.938.938 0 0 0-.07.36c0 .127.022.242.063.347a.874.874 0 0 0 .434.469.93.93 0 0 0 .406.094c.082 0 .163-.008.243-.028a.87.87 0 0 0 .6-.51.94.94 0 0 0 .064-.274l-.323-.04a.58.58 0 0 1-.13.355.503.503 0 0 1-.13.115.534.534 0 0 1-.16.06.815.815 0 0 1-.171.017.618.618 0 0 1-.309-.084.524.524 0 0 1-.132-.12.578.578 0 0 1-.093-.175.7.7 0 0 1-.036-.226c0-.087.014-.167.041-.24a.535.535 0 0 1 .528-.364.64.64 0 0 1 .13.011.488.488 0 0 1 .274.156l-.86.48.13.256 1.176-.656zm2.034 1.231h.319v-.797h.827v.797h.319v-1.748h-.319v.645h-.827v-.645h-.319v1.748zm3.333-1.748v.306h.548v1.442h.319v-1.442h.547v-.306h-1.414zm3.601 2.542v-1.526c.001-.123.013-.227.037-.314a.663.663 0 0 1 .098-.214.51.51 0 0 1 .299-.2.676.676 0 0 1 .392.026.586.586 0 0 1 .317.323.693.693 0 0 1 .047.255.609.609 0 0 1-.078.306.526.526 0 0 1-.214.205.67.67 0 0 1-.467.058.554.554 0 0 1-.147-.062.786.786 0 0 1-.153-.117v.335a.635.635 0 0 0 .146.093.756.756 0 0 0 .34.074.948.948 0 0 0 .512-.148.851.851 0 0 0 .337-.427 1 1 0 0 0 .001-.626.917.917 0 0 0-.136-.26.913.913 0 0 0-.74-.36c-.08 0-.163.01-.248.03a.78.78 0 0 0-.457.284.889.889 0 0 0-.149.294 1.435 1.435 0 0 0-.056.42v1.551h.319z" fill="#fff"/><path fill-rule="evenodd" clip-rule="evenodd" d="M43.725 26.019l-.058-.057.058.057zm-.547-.573a15.189 15.189 0 0 1-3.943-10.233c0-3.341 1.074-6.43 2.894-8.94 2.12.18 4.027 1.508 3.757 3.869-.128 1.12-.967.99-1.194 1.394-2.469 2.115-5.614 9.215-1.514 13.91z" fill="#15647D"/><path fill-rule="evenodd" clip-rule="evenodd" d="M54.389 0c8.367 0 15.154 6.812 15.154 15.213 0 .2-.005.397-.013.595l-5.546-4.517C64.228 4.389 61.614.094 54.389 0z" fill="url(#a)"/><path fill-rule="evenodd" clip-rule="evenodd" d="M54.389 0c7.587 0 9.353 5.923 7.249 9.35-1.756 2.86-7.877 2.5-10.74 1.683-5.396-1.541-11.961 2.662-11.102 8.294-.414-1.16-.561-3.585-.561-4.114C39.235 6.813 46.02 0 54.389 0z" fill="url(#b)"/><path fill-rule="evenodd" clip-rule="evenodd" d="M54.389 0c2.316 0 6.372 3.78 3.422 7.145-1.715 1.957-5.471 1.006-7.842.405-3.323-.842-8.396-.167-9.885 2.633C42.154 4.254 47.776 0 54.389 0z" fill="url(#c)"/><path fill-rule="evenodd" clip-rule="evenodd" d="M54.388 30.425c8.368 0 15.154-6.812 15.154-15.212 0-5.101-2.502-9.617-6.342-12.377 2.804 3.092 2.19 6.062 1.12 7.938-2.189 3.842-9.283 4.604-14.251 3.185-3.448-.984-6.32.752-7.686 3.374-1.367 2.622-1.23 6.129 1.341 8.686a15.076 15.076 0 0 0 10.664 4.406z" fill="url(#d)"/><path fill-rule="evenodd" clip-rule="evenodd" d="M54.389 30.425c8.368 0 15.154-6.812 15.154-15.212 0-2.3-.51-4.481-1.42-6.436.936 2.162.46 4.166-.283 5.59-2.097 4.018-9.335 5.068-14.476 3.804-3.568-.877-6.444 1.01-7.745 3.747-.95 2.002-.55 5.618 1.965 6.89a15.037 15.037 0 0 0 6.805 1.617z" fill="url(#e)"/><path fill-rule="evenodd" clip-rule="evenodd" d="M54.389 30.425c7.29 0 13.377-5.17 14.826-12.055-.143.476-.339.91-.557 1.293-1.921 3.371-8.147 4.04-12.507 2.795-2.281-.652-4.276.055-5.632 1.43-1.957 1.981-1.332 6.537 3.87 6.537z" fill="url(#f)"/><defs><linearGradient id="a" x1="62.483" y1="2.286" x2="64.338" y2="10.848" gradientUnits="userSpaceOnUse"><stop stop-color="#EA583A"/><stop offset="1" stop-color="#985440"/></linearGradient><radialGradient id="b" cx="0" cy="0" r="1" gradientUnits="userSpaceOnUse" gradientTransform="matrix(-33.77803 28.20277 -28.59918 -34.2528 59.44 6.38)"><stop stop-color="#91D8F7"/><stop offset=".58" stop-color="#3BB9EB"/><stop offset="1" stop-color="#0A83B2"/></radialGradient><radialGradient id="c" cx="0" cy="0" r="1" gradientUnits="userSpaceOnUse" gradientTransform="matrix(-81.266 42.05234 -44.63173 -86.25066 61.851 4.585)"><stop stop-color="#C7EAFB"/><stop offset=".58" stop-color="#91D8F7"/><stop offset="1" stop-color="#3BB9EB"/></radialGradient><radialGradient id="d" cx="0" cy="0" r="1" gradientUnits="userSpaceOnUse" gradientTransform="matrix(29.2238 -24.58424 24.65132 29.30353 50.21 23.802)"><stop stop-color="#FFCC29"/><stop offset=".271" stop-color="#FCB438"/><stop offset=".69" stop-color="#F58634"/><stop offset="1" stop-color="#F89F3A"/></radialGradient><radialGradient id="e" cx="0" cy="0" r="1" gradientUnits="userSpaceOnUse" gradientTransform="matrix(30.46852 -26.58107 26.64497 30.54177 49.293 23.496)"><stop stop-color="#FFDD21"/><stop offset=".271" stop-color="#FFD532"/><stop offset=".69" stop-color="#FDB92E"/><stop offset="1" stop-color="#FFC636"/></radialGradient><radialGradient id="f" cx="0" cy="0" r="1" gradientUnits="userSpaceOnUse" gradientTransform="matrix(49.2397 -50.91712 50.8916 49.21502 50.483 26.086)"><stop stop-color="#FFF8AF"/><stop offset=".271" stop-color="#FFE970"/><stop offset=".69" stop-color="#FFD657"/><stop offset="1" stop-color="#FFE29E"/></radialGradient></defs></svg>